<?xml version="1.0" standalone="no"?>
<!DOCTYPE svg PUBLIC "-//W3C//DTD SVG 20010904//EN"
 "http://www.w3.org/TR/2001/REC-SVG-20010904/DTD/svg10.dtd">
<svg version="1.0" xmlns="http://www.w3.org/2000/svg"
 width="150.000000pt" height="150.000000pt" viewBox="0 0 150.000000 150.000000"
 preserveAspectRatio="xMidYMid meet">
<metadata>
Created by potrace 1.13, written by Peter Selinger 2001-2015
</metadata>
<g transform="translate(0.000000,150.000000) scale(0.100000,-0.100000)"
fill="#000000" stroke="none">
<path d="M663 1057 l-183 -132 0 -190 0 -190 184 -128 c102 -70 187 -127 190
-127 3 0 6 203 6 450 0 248 -3 450 -7 450 -5 -1 -90 -60 -190 -133z"/>
<path d="M250 923 c-47 -18 -50 -28 -50 -198 0 -112 4 -165 12 -173 7 -7 44
-12 95 -12 l83 0 0 195 0 195 -62 -1 c-35 0 -70 -3 -78 -6z"/>
<path d="M983 753 c-21 -4 -53 -37 -53 -55 0 -5 67 -8 149 -8 156 0 177 6 169
46 -3 15 -19 17 -123 19 -66 1 -130 0 -142 -2z"/>
</g>
</svg>
