<?xml version="1.0" standalone="no"?>
<!DOCTYPE svg PUBLIC "-//W3C//DTD SVG 20010904//EN"
 "http://www.w3.org/TR/2001/REC-SVG-20010904/DTD/svg10.dtd">
<svg version="1.0" xmlns="http://www.w3.org/2000/svg"
 width="150.000000pt" height="150.000000pt" viewBox="0 0 150.000000 150.000000"
 preserveAspectRatio="xMidYMid meet">
<metadata>
Created by potrace 1.13, written by Peter Selinger 2001-2015
</metadata>
<g transform="translate(0.000000,150.000000) scale(0.100000,-0.100000)"
fill="#000000" stroke="none">
<path d="M663 1057 l-183 -132 0 -190 0 -190 184 -128 c102 -70 187 -127 190
-127 3 0 6 203 6 450 0 248 -3 450 -7 450 -5 -1 -90 -60 -190 -133z"/>
<path d="M986 992 c-44 -10 -45 -32 -1 -32 l36 0 50 -105 c27 -58 49 -111 49
-118 0 -10 -99 -161 -169 -259 -14 -18 -13 -19 25 -16 34 3 41 8 63 48 13 25
42 76 64 114 l39 68 45 -103 c25 -57 50 -110 55 -116 13 -16 69 -17 103 -1 36
16 32 35 -8 30 -42 -5 -46 1 -106 134 l-49 108 26 41 c15 22 53 76 85 119 59
80 63 101 16 94 -18 -2 -37 -26 -79 -100 -30 -53 -58 -100 -61 -103 -3 -3 -26
41 -51 97 -41 96 -46 103 -74 105 -16 0 -42 -2 -58 -5z"/>
<path d="M250 923 c-47 -18 -50 -28 -50 -198 0 -112 4 -165 12 -173 7 -7 44
-12 95 -12 l83 0 0 195 0 195 -62 -1 c-35 0 -70 -3 -78 -6z"/>
</g>
</svg>
