<?xml version="1.0" standalone="no"?>
<!DOCTYPE svg PUBLIC "-//W3C//DTD SVG 20010904//EN"
 "http://www.w3.org/TR/2001/REC-SVG-20010904/DTD/svg10.dtd">
<svg version="1.0" xmlns="http://www.w3.org/2000/svg"
 width="150.000000pt" height="150.000000pt" viewBox="0 0 150.000000 150.000000"
 preserveAspectRatio="xMidYMid meet">
<metadata>
Created by potrace 1.13, written by Peter Selinger 2001-2015
</metadata>
<g transform="translate(0.000000,150.000000) scale(0.100000,-0.100000)"
fill="#000000" stroke="none">
<path d="M663 1057 l-183 -132 0 -190 0 -190 184 -128 c102 -70 187 -127 190
-127 3 0 6 203 6 450 0 248 -3 450 -7 450 -5 -1 -90 -60 -190 -133z"/>
<path d="M1132 998 c-6 -6 -12 -32 -12 -57 0 -26 -3 -70 -6 -98 l-7 -53 -69 0
c-81 0 -138 -21 -138 -52 0 -18 5 -19 69 -12 39 3 86 3 105 0 l36 -7 0 -108
c0 -59 2 -110 5 -113 3 -3 17 -3 30 0 22 4 25 10 25 46 0 22 3 71 7 109 l6 67
88 0 c107 0 119 4 119 41 l0 29 -106 0 -105 0 5 53 c3 28 7 77 8 107 3 52 2
55 -22 58 -14 2 -31 -3 -38 -10z"/>
<path d="M250 923 c-47 -18 -50 -28 -50 -198 0 -112 4 -165 12 -173 7 -7 44
-12 95 -12 l83 0 0 195 0 195 -62 -1 c-35 0 -70 -3 -78 -6z"/>
</g>
</svg>
